<svg width="180" height="180" viewBox="0 0 180 180" fill="none" xmlns="http://www.w3.org/2000/svg">
<rect width="180" height="180" rx="90" fill="#ADE0E8"/>
<g clip-path="url(#clip0_606_228)">
<path d="M56.6667 56.6667H81.6667V81.6667H56.6667V56.6667ZM123.333 56.6667V81.6667H98.3333V56.6667H123.333ZM98.3333 102.5H106.667V94.1667H98.3333V85.8333H106.667V94.1667H115V85.8333H123.333V94.1667H115V102.5H123.333V115H115V123.333H106.667V115H94.1667V123.333H85.8333V106.667H98.3333V102.5ZM106.667 102.5V115H115V102.5H106.667ZM56.6667 123.333V98.3333H81.6667V123.333H56.6667ZM65 65V73.3333H73.3333V65H65ZM106.667 65V73.3333H115V65H106.667ZM65 106.667V115H73.3333V106.667H65ZM56.6667 85.8333H65V94.1667H56.6667V85.8333ZM77.5 85.8333H94.1667V102.5H85.8333V94.1667H77.5V85.8333ZM85.8333 65H94.1667V81.6667H85.8333V65ZM48.3333 48.3333V65H40V48.3333C40 46.1232 40.878 44.0036 42.4408 42.4408C44.0036 40.878 46.1232 40 48.3333 40H65V48.3333H48.3333ZM131.667 40C133.877 40 135.996 40.878 137.559 42.4408C139.122 44.0036 140 46.1232 140 48.3333V65H131.667V48.3333H115V40H131.667ZM48.3333 115V131.667H65V140H48.3333C46.1232 140 44.0036 139.122 42.4408 137.559C40.878 135.996 40 133.877 40 131.667V115H48.3333ZM131.667 131.667V115H140V131.667C140 133.877 139.122 135.996 137.559 137.559C135.996 139.122 133.877 140 131.667 140H115V131.667H131.667Z" fill="white"/>
</g>
<defs>
<clipPath id="clip0_606_228">
<rect width="100" height="100" fill="white" transform="translate(40 40)"/>
</clipPath>
</defs>
</svg>
