<svg width="50" height="50" viewBox="0 0 50 50" fill="none" xmlns="http://www.w3.org/2000/svg">
<g clip-path="url(#clip0_606_96)">
<path d="M38.2812 22.6562C43.8904 22.6562 48.4375 18.1091 48.4375 12.5C48.4375 6.89086 43.8904 2.34375 38.2812 2.34375C32.6721 2.34375 28.125 6.89086 28.125 12.5C28.125 18.1091 32.6721 22.6562 38.2812 22.6562Z" fill="#E43535"/>
<path d="M38.2812 21.0938C39.1442 21.0938 39.8438 20.3942 39.8438 19.5312C39.8438 18.6683 39.1442 17.9688 38.2812 17.9688C37.4183 17.9688 36.7188 18.6683 36.7188 19.5312C36.7188 20.3942 37.4183 21.0938 38.2812 21.0938Z" fill="white"/>
<path d="M34.375 9.59071C34.375 7.43335 36.1239 5.68446 38.2812 5.68446C40.4386 5.68446 42.1875 7.43335 42.1875 9.59071C42.1875 11.7481 40.4386 13.497 38.2812 13.497V15.6562" stroke="white" stroke-width="1.5" stroke-linecap="round"/>
<path fill-rule="evenodd" clip-rule="evenodd" d="M27.5234 39.2962C22.6702 42.8222 14.5436 41.4923 11.0175 36.6391C7.49152 31.786 5.7051 12.8044 5.7051 12.8044C5.7051 12.8044 24.0859 18.1898 28.4471 22.987C32.8083 27.7841 32.3765 35.7701 27.5234 39.2962Z" fill="#80D25B"/>
<path d="M10.3413 18.1587C10.3413 18.1587 21.7297 25.1488 25.8711 38.0228C26.9367 41.3353 28.5401 43.6987 30.334 45.3821" stroke="#22BA8E" stroke-width="2" stroke-linecap="round"/>
<path d="M16.4471 34.4022L24.0588 34.0796L27.7432 27.5874" stroke="#22BA8E" stroke-width="1.25" stroke-linecap="round"/>
<path d="M14.1082 27.6102L19.2996 26.5485L20.9668 22.3157" stroke="#22BA8E" stroke-width="1.25" stroke-linecap="round"/>
</g>
<defs>
<clipPath id="clip0_606_96">
<rect width="50" height="50" fill="white"/>
</clipPath>
</defs>
</svg>
