<svg width="90" height="90" viewBox="0 0 90 90" fill="none" xmlns="http://www.w3.org/2000/svg">
<rect width="90" height="90" rx="45" fill="#F9DDA2"/>
<path fill-rule="evenodd" clip-rule="evenodd" d="M54.6945 49.8994L48.1602 55.8086C46.3869 57.4102 43.6131 57.4102 41.8398 55.8086L35.3055 49.8994C34.3809 49.0656 34.3418 47.673 35.2135 46.7886C36.0852 45.9064 37.5411 45.8668 38.4657 46.7006L40.7588 48.7752C41.4925 49.4396 42.7 48.9424 42.7 47.9766V36.2C42.7 34.9856 43.7304 34 45 34C46.2696 34 47.3 34.9856 47.3 36.2V47.9766C47.3 48.9424 48.5075 49.4396 49.2389 48.7752L51.5343 46.7006C52.4566 45.8668 53.9125 45.9064 54.7865 46.7886C55.6582 47.673 55.6168 49.0656 54.6945 49.8994ZM61.1 62.6H28.9C27.6304 62.6 26.6 61.6166 26.6 60.4V29.6C26.6 28.3856 27.6304 27.4 28.9 27.4H61.1C62.3696 27.4 63.4 28.3856 63.4 29.6V60.4C63.4 61.6166 62.3696 62.6 61.1 62.6ZM22 27.4V62.6C22 65.031 24.0585 67 26.6 67H63.4C65.9392 67 68 65.031 68 62.6V27.4C68 24.9712 65.9392 23 63.4 23H26.6C24.0585 23 22 24.9712 22 27.4Z" fill="white" fill-opacity="0.94"/>
</svg>
