<svg width="38" height="38" viewBox="0 0 38 38" fill="none" xmlns="http://www.w3.org/2000/svg">
<g clip-path="url(#clip0_606_81)">
<path d="M34.9222 28.7358C35.0395 29.5203 35.1019 30.3222 35.1019 31.1395C24.518 33.6797 13.4825 33.6797 2.89854 31.1395C2.89854 30.3222 2.96037 29.5203 3.07823 28.7358C1.33152 29.6762 0.322266 30.659 0.322266 31.4615C0.322266 33.7737 8.68484 35.648 19.0002 35.648C29.3156 35.648 37.6782 33.7737 37.6782 31.4615C37.6782 30.659 36.6689 29.6762 34.9222 28.7358Z" fill="#D2D5D7"/>
<path d="M19 35.97C9.78919 35.97 0 34.3901 0 31.4615C0 30.2764 1.59085 29.1706 2.92471 28.4518L3.49085 28.1465L3.39617 28.7828C3.29183 29.4784 3.23386 30.185 3.22227 30.8851C13.5493 33.3216 24.4501 33.3216 34.7771 30.8851C34.7655 30.185 34.7075 29.4784 34.6032 28.7828L34.5085 28.1465L35.0746 28.4518C36.4092 29.1706 38 30.2764 38 31.4615C38 34.3901 28.2108 35.97 19 35.97ZM2.67546 29.3348C1.39247 30.107 0.644068 30.8831 0.644068 31.4615C0.644068 33.2894 8.18288 35.3259 19 35.3259C29.8171 35.3259 37.3559 33.2894 37.3559 31.4615C37.3559 30.8838 36.6075 30.107 35.3245 29.3348C35.3902 29.9357 35.4237 30.5398 35.4237 31.1395V31.3939L35.1771 31.4531C24.5937 33.9927 13.4063 33.9927 2.82359 31.4531L2.57627 31.3932V31.1388C2.57627 30.5398 2.60976 29.9357 2.67546 29.3348Z" fill="#E6E6E6"/>
<path d="M2.89844 31.1395C2.89844 22.2469 10.1075 15.0378 19.0001 15.0378C27.8928 15.0378 35.1018 22.2469 35.1018 31.1395C24.5179 33.6797 13.4824 33.6797 2.89844 31.1395Z" fill="#E6E6E6"/>
<path d="M18.9999 33.3576C13.5569 33.3576 8.11451 32.7226 2.82285 31.4525L2.57617 31.3932V31.1388C2.57617 22.0826 9.94366 14.7151 18.9999 14.7151C28.0561 14.7151 35.4236 22.0832 35.4236 31.1395V31.3939L35.177 31.4531C29.8853 32.7226 24.4429 33.3576 18.9999 33.3576ZM3.22217 30.8851C13.5498 33.3228 24.45 33.3228 34.7776 30.8851C34.6411 22.3016 27.6156 15.3598 18.9999 15.3598C10.3842 15.3598 3.35871 22.3016 3.22217 30.8851Z" fill="#D2D5D7"/>
<path d="M11.9523 13.7497C11.7874 13.7497 11.6226 13.6866 11.497 13.561C10.3409 12.4049 10.3409 10.523 11.497 9.36686C11.8138 9.04998 11.989 8.62876 11.989 8.18049C11.989 7.73222 11.8145 7.311 11.497 6.99412C11.2451 6.74229 11.2451 6.33523 11.497 6.0834C11.7488 5.83157 12.1558 5.83157 12.4077 6.0834C12.968 6.64374 13.2772 7.38829 13.2772 8.18049C13.2772 8.97269 12.9687 9.71723 12.4077 10.2776C11.7539 10.9319 11.7539 11.9959 12.4077 12.6503C12.6595 12.9022 12.6595 13.3092 12.4077 13.561C12.2814 13.6866 12.1166 13.7497 11.9523 13.7497Z" fill="#E6E6E6"/>
<path d="M26.1213 13.7497C25.9564 13.7497 25.7915 13.6866 25.6659 13.561C24.5098 12.4049 24.5098 10.523 25.6659 9.36686C25.9828 9.04998 26.158 8.62876 26.158 8.18049C26.158 7.73222 25.9834 7.311 25.6659 6.99412C25.4141 6.74229 25.4141 6.33523 25.6659 6.0834C25.9177 5.83157 26.3248 5.83157 26.5766 6.0834C27.137 6.64374 27.4461 7.38829 27.4461 8.18049C27.4461 8.97269 27.1376 9.71723 26.5766 10.2776C25.9229 10.9319 25.9229 11.9959 26.5766 12.6503C26.8284 12.9022 26.8284 13.3092 26.5766 13.561C26.4504 13.6866 26.2855 13.7497 26.1213 13.7497Z" fill="#E6E6E6"/>
<path d="M19.0363 9.88524C18.8714 9.88524 18.7065 9.82212 18.5809 9.69653C17.4248 8.54043 17.4248 6.65846 18.5809 5.50236C18.8978 5.18548 19.073 4.76426 19.073 4.31599C19.073 3.86772 18.8985 3.4465 18.5809 3.12961C18.3291 2.87778 18.3291 2.47073 18.5809 2.2189C18.8328 1.96707 19.2398 1.96707 19.4917 2.2189C20.052 2.77924 20.3611 3.52378 20.3611 4.31599C20.3611 5.10819 20.0526 5.85273 19.4917 6.41307C18.8379 7.06744 18.8379 8.13144 19.4917 8.78582C19.7435 9.03765 19.7435 9.4447 19.4917 9.69653C19.3654 9.82212 19.2005 9.88524 19.0363 9.88524Z" fill="#E6E6E6"/>
<path d="M21.8641 15.9369L21.3328 15.857C19.7909 15.6245 18.2091 15.6245 16.6678 15.857L16.1364 15.9369L15.9625 15.4281C15.8402 15.0687 15.7803 14.7305 15.7803 14.3937C15.7803 12.618 17.2249 11.1733 19.0006 11.1733C20.7763 11.1733 22.221 12.618 22.221 14.3937C22.221 14.7305 22.1611 15.0693 22.0387 15.4281L21.8641 15.9369ZM19 14.3937C19.6415 14.3937 20.2881 14.431 20.9283 14.5045C20.9309 14.4671 20.9322 14.4304 20.9322 14.3937C20.9322 13.3284 20.0653 12.4615 19 12.4615C17.9347 12.4615 17.0678 13.3284 17.0678 14.3937C17.0678 14.4304 17.0691 14.4671 17.0716 14.5045C17.7118 14.4304 18.3585 14.3937 19 14.3937Z" fill="#D2D5D7"/>
<path d="M16.0014 18.5879C15.7071 18.5879 15.4411 18.385 15.3734 18.0855C15.2949 17.7383 15.5132 17.3938 15.8603 17.3158C16.8793 17.0865 17.9323 16.97 18.9905 16.97C19.3493 16.9977 19.6436 17.2553 19.643 17.6147C19.643 17.9702 19.3544 18.2581 18.9989 18.2581C18.9963 18.2581 18.9931 18.2581 18.9905 18.2581C18.027 18.2581 17.0699 18.3637 16.1431 18.5724C16.0961 18.5834 16.0484 18.5879 16.0014 18.5879Z" fill="white"/>
<path d="M6.11954 29.2072C6.0809 29.2072 6.04226 29.204 6.00361 29.1962C5.65388 29.1325 5.42137 28.7975 5.48514 28.4472C6.22066 24.4153 8.66103 20.8227 12.0121 18.837C12.3187 18.6561 12.7129 18.7565 12.8945 19.0631C13.0761 19.3697 12.975 19.7645 12.6684 19.9455C9.63293 21.7437 7.4212 25.0085 6.75202 28.679C6.69598 28.9895 6.42483 29.2072 6.11954 29.2072Z" fill="white"/>
</g>
<defs>
<clipPath id="clip0_606_81">
<rect width="38" height="38" fill="white"/>
</clipPath>
</defs>
</svg>
