<svg width="33" height="33" viewBox="0 0 33 33" fill="none" xmlns="http://www.w3.org/2000/svg">
<g clip-path="url(#clip0_627_589)">
<path d="M32.9991 8.06193C28.6627 16.6096 21.6882 11.7848 21.4158 11.5913C21.4158 11.5913 21.4151 11.592 21.4144 11.592L21.4138 11.5926C21.4138 11.5926 21.4124 11.5907 21.4111 11.588C21.4085 11.5867 21.4065 11.5854 21.4065 11.5854L21.4072 11.5835C21.2143 11.3108 16.3889 4.33634 24.9365 0C26.5564 2.88763 26.6742 5.14794 26.1233 6.87573C27.8511 6.32427 30.1115 6.44203 32.9991 8.06193Z" fill="#9A4C00"/>
<path d="M32.9987 8.06197C28.6624 16.6096 21.6879 11.7848 21.4154 11.5914C21.4154 11.5914 21.4148 11.592 21.4141 11.592L26.1229 6.87584C27.8508 6.32431 30.1111 6.44207 32.9987 8.06197Z" fill="#723700"/>
<path d="M15.5849 10.6616C15.6583 8.85672 14.7777 7.35412 13.101 6.42671C11.906 5.76561 10.6902 5.60777 10.639 5.60139L10.3707 5.56787L10.1228 5.67564C6.51992 7.24211 3.91569 10.2153 2.59189 14.2736C1.60666 17.294 1.67452 19.8417 1.67794 19.9487L1.71481 21.1003L3.3184 20.7996L3.54038 20.3748C5.7671 16.1136 9.56849 13.3438 14.839 12.1425L15.6424 11.9594L15.5849 10.6616Z" fill="#FF4F18"/>
<path d="M13.0056 30.7047C12.408 31.0133 11.8031 31.2826 11.1995 31.5156C5.65199 33.6628 0.15253 32.8485 0.15253 32.8485C0.15253 32.8485 -0.678786 27.2352 1.55258 21.6305C1.78029 21.0572 2.04036 20.4845 2.33652 19.9178C2.35167 19.8895 2.36682 19.8606 2.3819 19.8322C4.36312 16.0908 7.93267 12.6293 14.2904 11.1799C16.6343 10.6454 19.3554 10.3842 22.5168 10.4841C22.8901 22.3459 18.1917 28.0277 13.0056 30.7047Z" fill="#FF7953"/>
<path d="M0.152344 32.8485L22.5167 10.4841C23.329 36.2799 0.152344 32.8485 0.152344 32.8485Z" fill="#FF4F18"/>
<path d="M13.0059 30.7047C12.9986 30.7087 12.9907 30.7126 12.9829 30.7166C12.921 30.7482 12.8591 30.7798 12.7972 30.8107C12.7854 30.8166 12.7735 30.8226 12.7616 30.8285C12.7071 30.8562 12.6518 30.8831 12.5965 30.9094C12.5405 30.9372 12.4839 30.964 12.4273 30.9904C12.37 31.0174 12.3127 31.0443 12.2548 31.0707C12.1297 31.1287 12.0034 31.1846 11.8776 31.2385C11.8217 31.2629 11.7657 31.2866 11.7098 31.3097C11.5913 31.3604 11.4715 31.4091 11.3523 31.4559C11.3017 31.4763 11.2503 31.496 11.1996 31.5158C10.39 29.1876 9.1526 27.1754 7.5024 25.4989C6.72374 24.7071 5.85285 23.9903 4.89186 23.3505C3.6202 22.5047 2.4235 21.961 1.55273 21.6306C1.78045 21.0573 2.04052 20.4846 2.33668 19.9179C2.35182 19.8896 2.36697 19.8606 2.38205 19.8323C3.33583 20.2015 4.58248 20.7821 5.91209 21.6582C6.84079 22.2703 7.87494 23.074 8.89124 24.1101C10.4585 25.7076 11.9823 27.8573 13.0059 30.7047Z" fill="#FFDBA8"/>
<path d="M3.13906 27.8126L4.60352 26.3481L3.13906 24.8837L1.67461 26.3481L3.13906 27.8126Z" fill="#FFDBA8"/>
<path d="M13.0054 30.7045C12.9981 30.7085 12.9903 30.7124 12.9824 30.7164C12.9205 30.748 12.8587 30.7795 12.7968 30.8105C12.7849 30.8164 12.7731 30.8223 12.7612 30.8283C12.7066 30.856 12.6513 30.8829 12.596 30.9092C12.5401 30.9369 12.4835 30.9638 12.4268 30.9902C12.3696 31.0172 12.3122 31.0441 12.2543 31.0705C12.1292 31.1284 12.0029 31.1844 11.8772 31.2383C11.8212 31.2627 11.7653 31.2863 11.7093 31.3095C11.5909 31.3602 11.471 31.4089 11.3519 31.4556C11.3012 31.4761 11.2498 31.4958 11.1992 31.5155C10.3895 29.1874 9.15215 27.1752 7.50195 25.4987L8.89085 24.1099C10.4581 25.7073 11.9818 27.857 13.0054 30.7045Z" fill="#FFC473"/>
</g>
<defs>
<clipPath id="clip0_627_589">
<rect width="33" height="33" fill="white"/>
</clipPath>
</defs>
</svg>
