<svg width="38" height="38" viewBox="0 0 38 38" fill="none" xmlns="http://www.w3.org/2000/svg">
<path d="M9.448 27.4695C8.81309 31.1522 8.51677 33.0121 9.57498 34.0729C11.6416 36.147 16.8628 33.8134 17.7022 33.438C22.8579 31.1323 29.8312 24.9014 27.9882 19.2153C26.9503 16.0106 23.205 13.2655 19.4847 13.4831C16.5639 13.6524 14.6041 15.5923 13.6373 16.5481C10.8559 19.2987 10.2967 22.5445 9.448 27.4695V27.4695Z" fill="#EF863F"/>
<path d="M9.70144 34.4548C9.8039 34.8247 11.5804 34.6296 12.2107 34.5602C19.8762 33.7187 25.2333 28.428 26.8144 25.5648C26.8478 25.5043 26.8991 25.4128 26.96 25.2934C27.4078 24.4304 28.6341 21.9837 27.9912 19.2146C27.7092 18.0005 27.5429 17.2835 27.1022 17.1827C25.5737 16.8331 24.764 24.8173 18.8057 29.708C14.6841 33.0926 9.5284 33.822 9.70151 34.4548L9.70144 34.4548Z" fill="#CF7436"/>
<path d="M11.752 35.6988C10.6312 35.6988 9.5653 35.4325 8.67512 34.7426C6.58022 33.1188 6.601 29.9954 6.8503 27.4556C6.89402 27.0252 7.25457 26.6921 7.69283 26.6921C8.16045 26.6921 8.53952 27.0712 8.53952 27.5388C8.53952 27.5681 8.538 27.5971 8.53511 27.6256C8.32718 29.7305 8.27293 32.2892 9.71214 33.4046C10.2705 33.8372 10.9795 34.0104 11.7579 34.0104C14.2452 34.0104 17.4402 32.2452 18.6902 31.5553C19.8182 30.9322 22.0054 29.6081 23.978 27.7491C26.7912 25.0967 27.9887 22.4901 27.5374 20.0028C27.1636 17.9418 25.6377 16.0273 23.241 14.6118C20.4075 12.9385 16.8399 12.7493 14.1521 14.1279C10.7725 15.8634 9.73585 19.5677 9.16775 22.9638C9.09791 23.3673 8.75045 23.6704 8.33215 23.6704C7.86421 23.6704 7.4848 23.291 7.4848 22.823C7.4848 22.7733 7.48907 22.7246 7.4973 22.6772C7.89872 20.2877 8.40582 18.553 9.14318 17.0571C10.1481 15.0181 11.534 13.5667 13.3804 12.6198C15.0041 11.7863 16.8937 11.4129 18.8493 11.5391C20.9786 11.6808 22.9236 12.3622 24.5812 13.4464C26.9291 14.8213 28.7408 17.1465 29.2035 19.6985C29.5142 21.4111 29.2183 23.1653 28.3239 24.9118C27.6238 26.279 26.5524 27.6479 25.1395 28.98C23.0314 30.9695 20.7067 32.3744 19.5097 33.0365C18.0023 33.8695 14.6892 35.699 11.752 35.699L11.752 35.6988Z" fill="black"/>
<path d="M7.98249 26.0595C7.98223 26.0595 7.98171 26.0595 7.98134 26.0595C7.5138 26.0595 7.13477 25.6805 7.13477 25.2129C7.13477 25.1721 7.13766 25.1321 7.14323 25.0929L7.14779 25.0605C7.20635 24.645 7.55952 24.3289 7.98654 24.3289C8.45408 24.3289 8.83315 24.7079 8.83315 25.1755C8.83315 25.216 8.83029 25.2559 8.8248 25.2949L8.82024 25.3281C8.76164 25.7431 8.40903 26.059 7.98249 26.0595Z" fill="black"/>
<path d="M21.6769 3.14749C20.1348 3.17165 17.5709 9.77712 20.1776 12.1027C21.1033 12.929 22.8244 13.3425 23.7332 12.6107C25.8565 10.9039 23.362 3.12129 21.6768 3.14753L21.6769 3.14749Z" fill="#6BE166"/>
<path d="M22.5015 13.8383C21.4665 13.8383 20.3638 13.4018 19.6159 12.7347C18.738 11.9512 18.2546 10.7385 18.219 9.22731C18.1906 8.05265 18.4332 6.71211 18.9018 5.4528C19.2506 4.51267 20.2208 2.32381 21.6655 2.30095C22.2915 2.29123 22.8931 2.69123 23.4489 3.49001C23.848 4.06231 24.2311 4.84076 24.5553 5.74107C25.3138 7.8406 26.1063 11.7887 24.2654 13.2702C23.7748 13.6656 23.1513 13.8378 22.5016 13.8383H22.5015ZM21.685 4.02843C21.5419 4.13594 21.2477 4.44194 20.9036 5.10063C20.5158 5.84267 20.2005 6.78072 20.0384 7.67421C19.7243 9.40718 19.9812 10.7909 20.7431 11.4708C21.4479 12.0998 22.7132 12.3466 23.2046 11.9508C23.5542 11.6697 23.8692 10.694 23.6071 8.86961C23.349 7.15579 22.794 5.6146 21.9932 4.2338C22.2272 4.58674 21.8543 4.1634 21.685 4.0284L21.685 4.02843Z" fill="black"/>
<path d="M24.253 11.8704C23.9833 12.8902 24.3926 14.3387 25.2689 14.6642C27.1165 15.3508 30.996 11.0319 30.345 9.90936C29.7617 8.90448 24.9112 9.37896 24.253 11.8705V11.8704Z" fill="#6BE166"/>
<path d="M25.6981 15.5839C25.6946 15.584 25.6905 15.584 25.6863 15.584C25.4304 15.584 25.1854 15.5374 24.9592 15.4523C24.3195 15.214 23.806 14.6244 23.5279 13.7964C23.2929 13.0967 23.2587 12.3149 23.4335 11.6532C23.9249 9.7937 26.0105 8.87428 27.7985 8.63425C28.4046 8.55298 30.4326 8.37349 31.0765 9.4838C31.3528 9.95999 31.3228 10.5743 30.9884 11.3086C30.759 11.8119 30.3861 12.3765 29.9099 12.9412C28.8118 14.2454 27.1466 15.5839 25.6981 15.5839V15.5839ZM28.7383 10.2615C28.0334 10.2667 27.3606 10.3972 26.7388 10.6317C26.2531 10.8079 25.2855 11.2672 25.0709 12.0867C24.8851 12.7907 25.2008 13.7376 25.5632 13.8709C25.7325 13.9344 26.2536 13.8764 27.1171 13.2554C28.3904 12.3129 29.382 11.0579 29.9872 9.60195C29.3157 10.9439 29.4875 10.5553 29.5464 10.3546C29.3775 10.3013 29.0952 10.2615 28.7392 10.2615L28.7383 10.2615Z" fill="black"/>
<path d="M25.1802 23.2789C24.9526 23.2786 24.7463 23.1884 24.5946 23.0417L21.9314 20.4954C21.7655 20.3404 21.6621 20.1204 21.6621 19.8761C21.6621 19.4086 22.0411 19.0295 22.5087 19.0295C22.7397 19.0295 22.9492 19.1221 23.1019 19.2722L25.7651 21.8203C25.9263 21.9747 26.0264 22.1916 26.0264 22.432C26.0264 22.8995 25.6474 23.2785 25.1799 23.2785C25.1799 23.2785 25.1798 23.2785 25.1797 23.2785L25.1802 23.2789Z" fill="black"/>
<path d="M22.7866 26.1539C22.7858 26.1539 22.7846 26.1539 22.7836 26.1539C22.5576 26.1539 22.3524 26.065 22.2009 25.9204L20.9119 24.6868C20.746 24.5318 20.6426 24.3118 20.6426 24.0675C20.6426 23.6 21.0216 23.2209 21.4892 23.2209C21.7202 23.2209 21.9296 23.3135 22.0824 23.4636L23.3707 24.6957C23.5319 24.8501 23.632 25.067 23.632 25.3073C23.632 25.7749 23.253 26.1539 22.7855 26.1539C22.7855 26.1539 22.7854 26.1539 22.7853 26.1539L22.7866 26.1539Z" fill="black"/>
</svg>
