<svg width="39" height="39" viewBox="0 0 39 39" fill="none" xmlns="http://www.w3.org/2000/svg">
<path d="M16.1486 25.9593L12.6752 22.7905C12.6752 22.7905 8.83613 26.6905 7.73926 26.8733C6.52051 26.9952 4.14395 25.5937 2.19395 27.5437C0.85332 28.8843 0.85332 31.078 2.19395 32.4187C3.10801 33.3327 4.50957 33.6374 5.66738 33.2718C5.30176 34.4296 5.60645 35.8312 6.52051 36.7452C7.86113 38.0858 10.0549 38.0858 11.3955 36.7452C13.3455 34.7952 11.883 32.4187 12.0658 31.1999C12.0658 29.8593 16.1486 25.9593 16.1486 25.9593Z" fill="#DDDDDD"/>
<path d="M25.9598 16.1484L22.791 12.675C22.791 12.675 26.691 8.83589 26.8738 7.73901C26.9957 6.52026 25.5941 4.1437 27.5441 2.1937C28.8848 0.853076 31.0785 0.853076 32.4191 2.1937C33.3332 3.10776 33.6379 4.50933 33.2723 5.66714C34.4301 5.30151 35.8316 5.6062 36.7457 6.52026C38.0863 7.86089 38.0863 10.0546 36.7457 11.3953C34.7957 13.3453 32.4191 11.8828 31.2004 12.0656C29.8598 12.0656 25.9598 16.1484 25.9598 16.1484Z" fill="#DDDDDD"/>
<path d="M19.4394 6.45935C17.4894 6.94685 6.94719 17.489 6.52063 19.3781C5.78938 22.364 16.6363 33.2109 19.6222 32.4797C21.5113 31.9922 32.1144 21.45 32.5409 19.5609C33.2722 16.575 22.4253 5.7281 19.4394 6.45935Z" fill="#A86332"/>
<path d="M8.89648 19.4392L8.28711 20.0486L8.89648 20.658L9.50586 20.0486L8.89648 19.4392Z" fill="#E6B858"/>
<path d="M10.9072 20.2922L10.2979 20.9016L10.9072 21.511L11.5166 20.9016L10.9072 20.2922Z" fill="#E6B858"/>
<path d="M22.3066 12.0742L22.9099 11.4709L23.5132 12.0742L22.9099 12.6775L22.3066 12.0742Z" fill="#E6B858"/>
<path d="M20.0205 9.24354L20.9254 8.33862L21.8297 9.24354L20.9248 10.1485L20.0205 9.24354Z" fill="#E6D0A3"/>
<path d="M19.5439 11.5757L20.1472 10.9724L20.7505 11.5757L20.1472 12.179L19.5439 11.5757Z" fill="#E6B858"/>
<path d="M18.8418 8.33009L19.4451 7.72681L20.0484 8.33009L19.4451 8.93337L18.8418 8.33009Z" fill="#E6D0A3"/>
<path d="M12.7979 14.9407L13.4011 14.3374L14.0044 14.9407L13.4011 15.544L12.7979 14.9407Z" fill="#E6D0A3"/>
<path d="M14.6553 17.4463L15.5602 16.5408L16.4651 17.4457L15.5602 18.3506L14.6553 17.4463Z" fill="#E6B858"/>
<path d="M16.4795 18.4031L17.0828 17.7998L17.6861 18.4031L17.0828 19.0064L16.4795 18.4031Z" fill="#E6B858"/>
<path d="M26.9346 23.6438L26.3252 24.2532L26.9346 24.8625L27.5439 24.2532L26.9346 23.6438Z" fill="#804C26"/>
<path d="M24.9238 24.4358L24.0098 25.3499L24.9238 26.2639L25.8379 25.3499L24.9238 24.4358Z" fill="#804C26"/>
<path d="M23.8877 21.9983L23.2783 22.6077L23.8877 23.217L24.4971 22.6077L23.8877 21.9983Z" fill="#804C26"/>
<path d="M18.7695 28.8843L17.8555 29.7983L18.7695 30.7124L19.6836 29.7983L18.7695 28.8843Z" fill="#804C26"/>
<path d="M17.3672 26.1421L16.7578 26.7515L17.3672 27.3608L17.9766 26.7515L17.3672 26.1421Z" fill="#804C26"/>
<path d="M17.002 28.2749L16.3926 28.8843L17.002 29.4937L17.6113 28.8843L17.002 28.2749Z" fill="#804C26"/>
<path d="M28.9453 17.7937L28.3359 18.4031L28.9453 19.0125L29.5547 18.4031L28.9453 17.7937Z" fill="#804C26"/>
<path d="M30.835 18.2202L30.2256 18.8296L30.835 19.439L31.4443 18.8296L30.835 18.2202Z" fill="#804C26"/>
<path d="M26.1426 21.6936L25.5332 22.303L26.1426 22.9124L26.752 22.303L26.1426 21.6936Z" fill="#804C26"/>
<path d="M30.3473 22.8515L13.9551 10.8468L14.9301 9.87183L30.8957 22.3031L30.3473 22.8515Z" fill="#E6B858"/>
<path d="M22.791 30.286L8.77539 16.2704L9.20195 15.7219L23.766 29.5547L22.791 30.286Z" fill="#E6B858"/>
<path d="M23.6436 29.7985L9.01855 15.7829L9.50605 15.2954L25.2889 27.9095L23.6436 29.7985Z" fill="#804C26"/>
<path d="M29.9814 23.2172L12.6143 11.8219L14.0768 10.3594L30.5908 22.8516L29.9814 23.2172Z" fill="#804C26"/>
<path opacity="0.4" d="M7.06841 36.4408C6.70278 34.6127 7.43403 32.8455 8.77465 31.8096H8.65278C7.12934 32.1143 6.15434 33.6377 6.45903 35.2221C6.58091 35.7705 6.82465 36.1971 7.12934 36.6236C7.12934 36.5627 7.12934 36.5018 7.06841 36.4408Z" fill="white"/>
<path opacity="0.4" d="M2.4374 31.0173C2.19365 29.6767 2.68115 28.458 3.65615 27.6658H3.59521C2.49834 27.9095 1.76709 29.0064 2.01084 30.1033C2.07177 30.4689 2.25459 30.8345 2.49834 31.0783C2.4374 31.0783 2.4374 31.0783 2.4374 31.0173Z" fill="white"/>
<path opacity="0.4" d="M36.4408 6.94707C34.6127 6.58144 32.8455 7.31269 31.8096 8.65332V8.53144C32.1143 7.00801 33.6377 6.033 35.2221 6.33769C35.7705 6.45957 36.1971 6.70332 36.6236 7.008C36.5627 7.008 36.5018 6.94707 36.4408 6.94707Z" fill="white"/>
<path opacity="0.4" d="M31.0166 2.25478C29.676 2.01103 28.4572 2.49853 27.665 3.47353V3.41259C27.8479 2.31572 29.0057 1.58447 30.1025 1.82822C30.4682 1.88916 30.8338 2.07197 31.0775 2.31572C31.1385 2.31572 31.0775 2.25478 31.0166 2.25478Z" fill="white"/>
</svg>
