<svg width="90" height="90" viewBox="0 0 90 90" fill="none" xmlns="http://www.w3.org/2000/svg">
<rect width="90" height="90" rx="45" fill="#EB8383"/>
<path d="M20.833 37.7499V31.7083C20.833 25.6908 25.6905 20.8333 31.708 20.8333H37.7497" stroke="white" stroke-width="5" stroke-linecap="round" stroke-linejoin="round"/>
<path d="M52.25 20.8333H58.2917C64.3092 20.8333 69.1667 25.6908 69.1667 31.7083V37.7499" stroke="white" stroke-width="5" stroke-linecap="round" stroke-linejoin="round"/>
<path d="M69.167 54.6667V58.2917C69.167 64.3092 64.3095 69.1667 58.292 69.1667H54.667" stroke="white" stroke-width="5" stroke-linecap="round" stroke-linejoin="round"/>
<path d="M37.7497 69.1667H31.708C25.6905 69.1667 20.833 64.3092 20.833 58.2917V52.25" stroke="white" stroke-width="5" stroke-linecap="round" stroke-linejoin="round"/>
<g opacity="0.4">
<path d="M57.0827 38.9583V51.0416C57.0827 55.8749 54.666 58.2916 49.8327 58.2916H40.166C35.3327 58.2916 32.916 55.8749 32.916 51.0416V38.9583C32.916 34.1249 35.3327 31.7083 40.166 31.7083H49.8327C54.666 31.7083 57.0827 34.1249 57.0827 38.9583Z" stroke="white" stroke-width="5" stroke-linecap="round" stroke-linejoin="round"/>
<path d="M61.9163 45H28.083" stroke="white" stroke-width="5" stroke-linecap="round" stroke-linejoin="round"/>
</g>
</svg>
